{
    "asset" : {
        "generator" : "Khronos glTF Blender I/O v1.1.46",
        "version" : "2.0"
    },
    "scene" : 0,
    "scenes" : [
        {
            "name" : "Scene",
            "nodes" : [
                4
            ]
        }
    ],
    "nodes" : [
        {
            "mesh" : 0,
            "name" : "Plane",
            "rotation" : [
                -0.27277132868766785,
                -0.9620769619941711,
                0.0005221447208896279,
                0.001841628341935575
            ],
            "scale" : [
                0.20932865142822266,
                1,
                1
            ],
            "translation" : [
                0.006286241114139557,
                -0.14488327503204346,
                0.0017854534089565277
            ]
        },
        {
            "mesh" : 1,
            "name" : "Plane.001",
            "rotation" : [
                -0.11450136452913284,
                0.08586516231298447,
                0.8556694984436035,
                0.49733924865722656
            ],
            "scale" : [
                0.08739160746335983,
                1,
                1
            ],
            "translation" : [
                0.49102583527565,
                -0.4049423933029175,
                -0.08269616961479187
            ]
        },
        {
            "mesh" : 2,
            "name" : "Plane.002",
            "rotation" : [
                -0.28260311484336853,
                0.30663397908210754,
                0.4327526390552521,
                0.7992722988128662
            ],
            "scale" : [
                0.21015477180480957,
                1,
                1
            ],
            "translation" : [
                0.006286241114139557,
                -0.14488327503204346,
                0.0017854534089565277
            ]
        },
        {
            "mesh" : 3,
            "name" : "Plane.003",
            "rotation" : [
                0.28253409266471863,
                -0.30889835953712463,
                0.43233275413513184,
                0.7986517548561096
            ],
            "scale" : [
                0.2142787128686905,
                1,
                1
            ],
            "translation" : [
                0.006286241114139557,
                -0.14488327503204346,
                0.0017854534089565277
            ]
        },
        {
            "children" : [
                0,
                1,
                2,
                3
            ],
            "mesh" : 4,
            "name" : "_root_cables"
        }
    ],
    "animations" : [
        {
            "channels" : [
                {
                    "sampler" : 0,
                    "target" : {
                        "node" : 0,
                        "path" : "translation"
                    }
                },
                {
                    "sampler" : 1,
                    "target" : {
                        "node" : 0,
                        "path" : "rotation"
                    }
                },
                {
                    "sampler" : 2,
                    "target" : {
                        "node" : 0,
                        "path" : "scale"
                    }
                }
            ],
            "name" : "Action",
            "samplers" : [
                {
                    "input" : 17,
                    "interpolation" : "LINEAR",
                    "output" : 18
                },
                {
                    "input" : 17,
                    "interpolation" : "LINEAR",
                    "output" : 19
                },
                {
                    "input" : 17,
                    "interpolation" : "LINEAR",
                    "output" : 20
                }
            ]
        },
        {
            "channels" : [
                {
                    "sampler" : 0,
                    "target" : {
                        "node" : 1,
                        "path" : "translation"
                    }
                },
                {
                    "sampler" : 1,
                    "target" : {
                        "node" : 1,
                        "path" : "rotation"
                    }
                },
                {
                    "sampler" : 2,
                    "target" : {
                        "node" : 1,
                        "path" : "scale"
                    }
                }
            ],
            "name" : "Action.002",
            "samplers" : [
                {
                    "input" : 17,
                    "interpolation" : "LINEAR",
                    "output" : 21
                },
                {
                    "input" : 17,
                    "interpolation" : "LINEAR",
                    "output" : 22
                },
                {
                    "input" : 17,
                    "interpolation" : "LINEAR",
                    "output" : 23
                }
            ]
        },
        {
            "channels" : [
                {
                    "sampler" : 0,
                    "target" : {
                        "node" : 2,
                        "path" : "translation"
                    }
                },
                {
                    "sampler" : 1,
                    "target" : {
                        "node" : 2,
                        "path" : "rotation"
                    }
                },
                {
                    "sampler" : 2,
                    "target" : {
                        "node" : 2,
                        "path" : "scale"
                    }
                }
            ],
            "name" : "Action.003",
            "samplers" : [
                {
                    "input" : 17,
                    "interpolation" : "LINEAR",
                    "output" : 24
                },
                {
                    "input" : 17,
                    "interpolation" : "LINEAR",
                    "output" : 25
                },
                {
                    "input" : 17,
                    "interpolation" : "LINEAR",
                    "output" : 26
                }
            ]
        },
        {
            "channels" : [
                {
                    "sampler" : 0,
                    "target" : {
                        "node" : 3,
                        "path" : "translation"
                    }
                },
                {
                    "sampler" : 1,
                    "target" : {
                        "node" : 3,
                        "path" : "rotation"
                    }
                },
                {
                    "sampler" : 2,
                    "target" : {
                        "node" : 3,
                        "path" : "scale"
                    }
                }
            ],
            "name" : "Action.004",
            "samplers" : [
                {
                    "input" : 17,
                    "interpolation" : "LINEAR",
                    "output" : 27
                },
                {
                    "input" : 17,
                    "interpolation" : "LINEAR",
                    "output" : 28
                },
                {
                    "input" : 17,
                    "interpolation" : "LINEAR",
                    "output" : 29
                }
            ]
        }
    ],
    "materials" : [
        {
            "alphaMode" : "BLEND",
            "doubleSided" : true,
            "emissiveFactor" : [
                0,
                0,
                0
            ],
            "name" : "rope_tex",
            "pbrMetallicRoughness" : {
                "baseColorTexture" : {
                    "index" : 0,
                    "texCoord" : 0
                },
                "metallicFactor" : 0,
                "roughnessFactor" : 0.5
            }
        },
        {
            "alphaMode" : "BLEND",
            "doubleSided" : true,
            "emissiveFactor" : [
                0,
                0,
                0
            ],
            "name" : "cable_tex",
            "pbrMetallicRoughness" : {
                "baseColorTexture" : {
                    "index" : 1,
                    "texCoord" : 0
                },
                "metallicFactor" : 0,
                "roughnessFactor" : 0.5
            }
        },
        {
            "alphaMode" : "BLEND",
            "doubleSided" : true,
            "emissiveFactor" : [
                0,
                0,
                0
            ],
            "name" : "transparent",
            "pbrMetallicRoughness" : {
                "baseColorTexture" : {
                    "index" : 2,
                    "texCoord" : 0
                },
                "metallicFactor" : 0,
                "roughnessFactor" : 0.5
            }
        }
    ],
    "meshes" : [
        {
            "name" : "Plane.013",
            "primitives" : [
                {
                    "attributes" : {
                        "POSITION" : 0,
                        "NORMAL" : 1,
                        "TEXCOORD_0" : 2
                    },
                    "indices" : 3,
                    "material" : 0
                }
            ]
        },
        {
            "name" : "Plane.012",
            "primitives" : [
                {
                    "attributes" : {
                        "POSITION" : 4,
                        "NORMAL" : 5,
                        "TEXCOORD_0" : 6
                    },
                    "indices" : 7,
                    "material" : 1
                }
            ]
        },
        {
            "name" : "Plane.011",
            "primitives" : [
                {
                    "attributes" : {
                        "POSITION" : 8,
                        "NORMAL" : 9,
                        "TEXCOORD_0" : 10
                    },
                    "indices" : 3,
                    "material" : 0
                }
            ]
        },
        {
            "name" : "Plane.010",
            "primitives" : [
                {
                    "attributes" : {
                        "POSITION" : 11,
                        "NORMAL" : 12,
                        "TEXCOORD_0" : 13
                    },
                    "indices" : 3,
                    "material" : 0
                }
            ]
        },
        {
            "name" : "Cube.032",
            "primitives" : [
                {
                    "attributes" : {
                        "POSITION" : 14,
                        "NORMAL" : 15
                    },
                    "indices" : 16,
                    "material" : 2
                }
            ]
        }
    ],
    "textures" : [
        {
            "source" : 0
        },
        {
            "source" : 1
        },
        {
            "source" : 2
        }
    ],
    "images" : [
        {
            "mimeType" : "image/png",
            "name" : "rope",
            "uri" : "rope.png"
        },
        {
            "mimeType" : "image/png",
            "name" : "cable",
            "uri" : "cable.png"
        },
        {
            "mimeType" : "image/png",
            "name" : "clear",
            "uri" : "clear.png"
        }
    ],
    "accessors" : [
        {
            "bufferView" : 0,
            "componentType" : 5126,
            "count" : 20,
            "max" : [
                0.0021551663521677256,
                0.2690359055995941,
                3.8149551073729526e-07
            ],
            "min" : [
                -2.6882033348083496,
                -0.2690364420413971,
                -2.0601204298031917e-08
            ],
            "type" : "VEC3"
        },
        {
            "bufferView" : 1,
            "componentType" : 5126,
            "count" : 20,
            "type" : "VEC3"
        },
        {
            "bufferView" : 2,
            "componentType" : 5126,
            "count" : 20,
            "type" : "VEC2"
        },
        {
            "bufferView" : 3,
            "componentType" : 5123,
            "count" : 30,
            "type" : "SCALAR"
        },
        {
            "bufferView" : 4,
            "componentType" : 5126,
            "count" : 28,
            "max" : [
                0.0014809879940003157,
                0.258403480052948,
                5.960464477539062e-07
            ],
            "min" : [
                -3.61616849899292,
                -0.2584042549133301,
                -1.9707899312493282e-08
            ],
            "type" : "VEC3"
        },
        {
            "bufferView" : 5,
            "componentType" : 5126,
            "count" : 28,
            "type" : "VEC3"
        },
        {
            "bufferView" : 6,
            "componentType" : 5126,
            "count" : 28,
            "type" : "VEC2"
        },
        {
            "bufferView" : 7,
            "componentType" : 5123,
            "count" : 42,
            "type" : "SCALAR"
        },
        {
            "bufferView" : 8,
            "componentType" : 5126,
            "count" : 20,
            "max" : [
                0.0021551663521677256,
                0.2690359055995941,
                3.8149551073729526e-07
            ],
            "min" : [
                -2.6882033348083496,
                -0.2690364420413971,
                -2.0601204298031917e-08
            ],
            "type" : "VEC3"
        },
        {
            "bufferView" : 9,
            "componentType" : 5126,
            "count" : 20,
            "type" : "VEC3"
        },
        {
            "bufferView" : 10,
            "componentType" : 5126,
            "count" : 20,
            "type" : "VEC2"
        },
        {
            "bufferView" : 11,
            "componentType" : 5126,
            "count" : 20,
            "max" : [
                0.0021551663521677256,
                0.2690359055995941,
                3.8149551073729526e-07
            ],
            "min" : [
                -2.6882033348083496,
                -0.2690364420413971,
                -2.0601204298031917e-08
            ],
            "type" : "VEC3"
        },
        {
            "bufferView" : 12,
            "componentType" : 5126,
            "count" : 20,
            "type" : "VEC3"
        },
        {
            "bufferView" : 13,
            "componentType" : 5126,
            "count" : 20,
            "type" : "VEC2"
        },
        {
            "bufferView" : 14,
            "componentType" : 5126,
            "count" : 24,
            "max" : [
                0.5000000596046448,
                0.5000000596046448,
                0.5000003576278687
            ],
            "min" : [
                -0.4999999403953552,
                -0.5000000596046448,
                -0.5000001788139343
            ],
            "type" : "VEC3"
        },
        {
            "bufferView" : 15,
            "componentType" : 5126,
            "count" : 24,
            "type" : "VEC3"
        },
        {
            "bufferView" : 16,
            "componentType" : 5123,
            "count" : 36,
            "type" : "SCALAR"
        },
        {
            "bufferView" : 17,
            "componentType" : 5126,
            "count" : 323,
            "max" : [
                10.733333333333333
            ],
            "min" : [
                0
            ],
            "type" : "SCALAR"
        },
        {
            "bufferView" : 18,
            "componentType" : 5126,
            "count" : 323,
            "type" : "VEC3"
        },
        {
            "bufferView" : 19,
            "componentType" : 5126,
            "count" : 323,
            "type" : "VEC4"
        },
        {
            "bufferView" : 20,
            "componentType" : 5126,
            "count" : 323,
            "type" : "VEC3"
        },
        {
            "bufferView" : 21,
            "componentType" : 5126,
            "count" : 323,
            "type" : "VEC3"
        },
        {
            "bufferView" : 22,
            "componentType" : 5126,
            "count" : 323,
            "type" : "VEC4"
        },
        {
            "bufferView" : 23,
            "componentType" : 5126,
            "count" : 323,
            "type" : "VEC3"
        },
        {
            "bufferView" : 24,
            "componentType" : 5126,
            "count" : 323,
            "type" : "VEC3"
        },
        {
            "bufferView" : 25,
            "componentType" : 5126,
            "count" : 323,
            "type" : "VEC4"
        },
        {
            "bufferView" : 26,
            "componentType" : 5126,
            "count" : 323,
            "type" : "VEC3"
        },
        {
            "bufferView" : 27,
            "componentType" : 5126,
            "count" : 323,
            "type" : "VEC3"
        },
        {
            "bufferView" : 28,
            "componentType" : 5126,
            "count" : 323,
            "type" : "VEC4"
        },
        {
            "bufferView" : 29,
            "componentType" : 5126,
            "count" : 323,
            "type" : "VEC3"
        }
    ],
    "bufferViews" : [
        {
            "buffer" : 0,
            "byteLength" : 240,
            "byteOffset" : 0
        },
        {
            "buffer" : 0,
            "byteLength" : 240,
            "byteOffset" : 240
        },
        {
            "buffer" : 0,
            "byteLength" : 160,
            "byteOffset" : 480
        },
        {
            "buffer" : 0,
            "byteLength" : 60,
            "byteOffset" : 640
        },
        {
            "buffer" : 0,
            "byteLength" : 336,
            "byteOffset" : 700
        },
        {
            "buffer" : 0,
            "byteLength" : 336,
            "byteOffset" : 1036
        },
        {
            "buffer" : 0,
            "byteLength" : 224,
            "byteOffset" : 1372
        },
        {
            "buffer" : 0,
            "byteLength" : 84,
            "byteOffset" : 1596
        },
        {
            "buffer" : 0,
            "byteLength" : 240,
            "byteOffset" : 1680
        },
        {
            "buffer" : 0,
            "byteLength" : 240,
            "byteOffset" : 1920
        },
        {
            "buffer" : 0,
            "byteLength" : 160,
            "byteOffset" : 2160
        },
        {
            "buffer" : 0,
            "byteLength" : 240,
            "byteOffset" : 2320
        },
        {
            "buffer" : 0,
            "byteLength" : 240,
            "byteOffset" : 2560
        },
        {
            "buffer" : 0,
            "byteLength" : 160,
            "byteOffset" : 2800
        },
        {
            "buffer" : 0,
            "byteLength" : 288,
            "byteOffset" : 2960
        },
        {
            "buffer" : 0,
            "byteLength" : 288,
            "byteOffset" : 3248
        },
        {
            "buffer" : 0,
            "byteLength" : 72,
            "byteOffset" : 3536
        },
        {
            "buffer" : 0,
            "byteLength" : 1292,
            "byteOffset" : 3608
        },
        {
            "buffer" : 0,
            "byteLength" : 3876,
            "byteOffset" : 4900
        },
        {
            "buffer" : 0,
            "byteLength" : 5168,
            "byteOffset" : 8776
        },
        {
            "buffer" : 0,
            "byteLength" : 3876,
            "byteOffset" : 13944
        },
        {
            "buffer" : 0,
            "byteLength" : 3876,
            "byteOffset" : 17820
        },
        {
            "buffer" : 0,
            "byteLength" : 5168,
            "byteOffset" : 21696
        },
        {
            "buffer" : 0,
            "byteLength" : 3876,
            "byteOffset" : 26864
        },
        {
            "buffer" : 0,
            "byteLength" : 3876,
            "byteOffset" : 30740
        },
        {
            "buffer" : 0,
            "byteLength" : 5168,
            "byteOffset" : 34616
        },
        {
            "buffer" : 0,
            "byteLength" : 3876,
            "byteOffset" : 39784
        },
        {
            "buffer" : 0,
            "byteLength" : 3876,
            "byteOffset" : 43660
        },
        {
            "buffer" : 0,
            "byteLength" : 5168,
            "byteOffset" : 47536
        },
        {
            "buffer" : 0,
            "byteLength" : 3876,
            "byteOffset" : 52704
        }
    ],
    "buffers" : [
        {
            "byteLength" : 56580,
            "uri" : "edl2020_cables.bin"
        }
    ]
}
