{
    "asset" : {
        "generator" : "Khronos glTF Blender I/O v1.1.46",
        "version" : "2.0"
    },
    "scene" : 0,
    "scenes" : [
        {
            "name" : "Scene",
            "nodes" : [
                3
            ]
        }
    ],
    "nodes" : [
        {
            "mesh" : 0,
            "name" : "back_shell",
            "translation" : [
                0,
                -0.054627999663352966,
                0
            ]
        },
        {
            "mesh" : 1,
            "name" : "backshell_inside",
            "translation" : [
                0,
                -0.05316343903541565,
                0
            ]
        },
        {
            "mesh" : 2,
            "name" : "cone",
            "translation" : [
                0,
                0.9599728584289551,
                0
            ]
        },
        {
            "children" : [
                0,
                1,
                2
            ],
            "mesh" : 3,
            "name" : "_root_backshell"
        }
    ],
    "materials" : [
        {
            "doubleSided" : true,
            "emissiveFactor" : [
                0,
                0,
                0
            ],
            "name" : "back_shell_AO",
            "normalTexture" : {
                "index" : 0,
                "texCoord" : 0
            },
            "pbrMetallicRoughness" : {
                "baseColorTexture" : {
                    "index" : 1,
                    "texCoord" : 0
                },
                "metallicFactor" : 0,
                "roughnessFactor" : 0.5
            }
        },
        {
            "doubleSided" : true,
            "emissiveFactor" : [
                0,
                0,
                0
            ],
            "name" : "heatshield_inside",
            "pbrMetallicRoughness" : {
                "baseColorTexture" : {
                    "index" : 2,
                    "texCoord" : 0
                },
                "metallicFactor" : 0.5,
                "roughnessFactor" : 0.5
            }
        },
        {
            "doubleSided" : true,
            "emissiveFactor" : [
                0,
                0,
                0
            ],
            "name" : "cone_AO.001",
            "pbrMetallicRoughness" : {
                "baseColorTexture" : {
                    "index" : 3,
                    "texCoord" : 0
                },
                "metallicFactor" : 0,
                "roughnessFactor" : 0.5
            }
        }
    ],
    "meshes" : [
        {
            "name" : "Circle.004",
            "primitives" : [
                {
                    "attributes" : {
                        "POSITION" : 0,
                        "NORMAL" : 1,
                        "TEXCOORD_0" : 2
                    },
                    "indices" : 3,
                    "material" : 0
                }
            ]
        },
        {
            "name" : "Plane.002",
            "primitives" : [
                {
                    "attributes" : {
                        "POSITION" : 4,
                        "NORMAL" : 5,
                        "TEXCOORD_0" : 6
                    },
                    "indices" : 7,
                    "material" : 1
                }
            ]
        },
        {
            "name" : "Circle.005",
            "primitives" : [
                {
                    "attributes" : {
                        "POSITION" : 8,
                        "NORMAL" : 9,
                        "TEXCOORD_0" : 10
                    },
                    "indices" : 11,
                    "material" : 2
                },
                {
                    "attributes" : {
                        "POSITION" : 12,
                        "NORMAL" : 13,
                        "TEXCOORD_0" : 14
                    },
                    "indices" : 15,
                    "material" : 1
                }
            ]
        },
        {
            "name" : "Cube.000",
            "primitives" : [
                {
                    "attributes" : {
                        "POSITION" : 16,
                        "NORMAL" : 17
                    },
                    "indices" : 18
                }
            ]
        }
    ],
    "textures" : [
        {
            "source" : 0
        },
        {
            "source" : 1
        },
        {
            "source" : 2
        },
        {
            "source" : 3
        }
    ],
    "images" : [
        {
            "mimeType" : "image/png",
            "name" : "back_shell_AO_n",
            "uri" : "back_shell_AO_n.png"
        },
        {
            "mimeType" : "image/png",
            "name" : "back_shell_AO",
            "uri" : "back_shell_AO.png"
        },
        {
            "mimeType" : "image/png",
            "name" : "heat_shield_inside",
            "uri" : "heat_shield_inside.png"
        },
        {
            "mimeType" : "image/png",
            "name" : "cone_AO",
            "uri" : "cone_AO.png"
        }
    ],
    "accessors" : [
        {
            "bufferView" : 0,
            "componentType" : 5126,
            "count" : 912,
            "max" : [
                2.2035672664642334,
                0.6837561130523682,
                2.203568458557129
            ],
            "min" : [
                -2.2035675048828125,
                -0.6837562322616577,
                -2.203568458557129
            ],
            "type" : "VEC3"
        },
        {
            "bufferView" : 1,
            "componentType" : 5126,
            "count" : 912,
            "type" : "VEC3"
        },
        {
            "bufferView" : 2,
            "componentType" : 5126,
            "count" : 912,
            "type" : "VEC2"
        },
        {
            "bufferView" : 3,
            "componentType" : 5123,
            "count" : 4320,
            "type" : "SCALAR"
        },
        {
            "bufferView" : 4,
            "componentType" : 5126,
            "count" : 144,
            "max" : [
                2.1850664615631104,
                0.6637631058692932,
                2.1850671768188477
            ],
            "min" : [
                -2.1850664615631104,
                -0.6852217316627502,
                -2.1850671768188477
            ],
            "type" : "VEC3"
        },
        {
            "bufferView" : 5,
            "componentType" : 5126,
            "count" : 144,
            "type" : "VEC3"
        },
        {
            "bufferView" : 6,
            "componentType" : 5126,
            "count" : 144,
            "type" : "VEC2"
        },
        {
            "bufferView" : 7,
            "componentType" : 5123,
            "count" : 576,
            "type" : "SCALAR"
        },
        {
            "bufferView" : 8,
            "componentType" : 5126,
            "count" : 1412,
            "max" : [
                0.7853723168373108,
                0.2884233593940735,
                0.7853724956512451
            ],
            "min" : [
                -0.7853723168373108,
                -0.33084529638290405,
                -0.7853724956512451
            ],
            "type" : "VEC3"
        },
        {
            "bufferView" : 9,
            "componentType" : 5126,
            "count" : 1412,
            "type" : "VEC3"
        },
        {
            "bufferView" : 10,
            "componentType" : 5126,
            "count" : 1412,
            "type" : "VEC2"
        },
        {
            "bufferView" : 11,
            "componentType" : 5123,
            "count" : 4500,
            "type" : "SCALAR"
        },
        {
            "bufferView" : 12,
            "componentType" : 5126,
            "count" : 144,
            "max" : [
                0.3677859902381897,
                0.2051372528076172,
                0.36778566241264343
            ],
            "min" : [
                -0.3677850365638733,
                0.2051372528076172,
                -0.36778590083122253
            ],
            "type" : "VEC3"
        },
        {
            "bufferView" : 13,
            "componentType" : 5126,
            "count" : 144,
            "type" : "VEC3"
        },
        {
            "bufferView" : 14,
            "componentType" : 5126,
            "count" : 144,
            "type" : "VEC2"
        },
        {
            "bufferView" : 15,
            "componentType" : 5123,
            "count" : 144,
            "type" : "SCALAR"
        },
        {
            "bufferView" : 16,
            "componentType" : 5126,
            "count" : 8,
            "max" : [
                0.5000002384185791,
                0.5,
                0.5000002980232239
            ],
            "min" : [
                -0.5000001788139343,
                -0.5,
                -0.5000001788139343
            ],
            "type" : "VEC3"
        },
        {
            "bufferView" : 17,
            "componentType" : 5126,
            "count" : 8,
            "type" : "VEC3"
        },
        {
            "bufferView" : 18,
            "componentType" : 5123,
            "count" : 36,
            "type" : "SCALAR"
        }
    ],
    "bufferViews" : [
        {
            "buffer" : 0,
            "byteLength" : 10944,
            "byteOffset" : 0
        },
        {
            "buffer" : 0,
            "byteLength" : 10944,
            "byteOffset" : 10944
        },
        {
            "buffer" : 0,
            "byteLength" : 7296,
            "byteOffset" : 21888
        },
        {
            "buffer" : 0,
            "byteLength" : 8640,
            "byteOffset" : 29184
        },
        {
            "buffer" : 0,
            "byteLength" : 1728,
            "byteOffset" : 37824
        },
        {
            "buffer" : 0,
            "byteLength" : 1728,
            "byteOffset" : 39552
        },
        {
            "buffer" : 0,
            "byteLength" : 1152,
            "byteOffset" : 41280
        },
        {
            "buffer" : 0,
            "byteLength" : 1152,
            "byteOffset" : 42432
        },
        {
            "buffer" : 0,
            "byteLength" : 16944,
            "byteOffset" : 43584
        },
        {
            "buffer" : 0,
            "byteLength" : 16944,
            "byteOffset" : 60528
        },
        {
            "buffer" : 0,
            "byteLength" : 11296,
            "byteOffset" : 77472
        },
        {
            "buffer" : 0,
            "byteLength" : 9000,
            "byteOffset" : 88768
        },
        {
            "buffer" : 0,
            "byteLength" : 1728,
            "byteOffset" : 97768
        },
        {
            "buffer" : 0,
            "byteLength" : 1728,
            "byteOffset" : 99496
        },
        {
            "buffer" : 0,
            "byteLength" : 1152,
            "byteOffset" : 101224
        },
        {
            "buffer" : 0,
            "byteLength" : 288,
            "byteOffset" : 102376
        },
        {
            "buffer" : 0,
            "byteLength" : 96,
            "byteOffset" : 102664
        },
        {
            "buffer" : 0,
            "byteLength" : 96,
            "byteOffset" : 102760
        },
        {
            "buffer" : 0,
            "byteLength" : 72,
            "byteOffset" : 102856
        }
    ],
    "buffers" : [
        {
            "byteLength" : 102928,
            "uri" : "edl2020_backshell.bin"
        }
    ]
}
