{
    "asset" : {
        "generator" : "Khronos glTF Blender I/O v1.1.46",
        "version" : "2.0"
    },
    "scene" : 0,
    "scenes" : [
        {
            "name" : "Scene",
            "nodes" : [
                1
            ]
        }
    ],
    "nodes" : [
        {
            "mesh" : 0,
            "name" : "chute"
        },
        {
            "children" : [
                0
            ],
            "mesh" : 1,
            "name" : "_root_chute",
            "translation" : [
                0,
                0.054627999663352966,
                0
            ]
        }
    ],
    "animations" : [
        {
            "channels" : [
                {
                    "sampler" : 0,
                    "target" : {
                        "node" : 0,
                        "path" : "translation"
                    }
                },
                {
                    "sampler" : 1,
                    "target" : {
                        "node" : 0,
                        "path" : "rotation"
                    }
                },
                {
                    "sampler" : 2,
                    "target" : {
                        "node" : 0,
                        "path" : "scale"
                    }
                }
            ],
            "name" : "Action.005",
            "samplers" : [
                {
                    "input" : 21,
                    "interpolation" : "LINEAR",
                    "output" : 22
                },
                {
                    "input" : 21,
                    "interpolation" : "LINEAR",
                    "output" : 23
                },
                {
                    "input" : 21,
                    "interpolation" : "LINEAR",
                    "output" : 24
                }
            ]
        },
        {
            "channels" : [
                {
                    "sampler" : 0,
                    "target" : {
                        "node" : 0,
                        "path" : "weights"
                    }
                }
            ],
            "name" : "KeyAction",
            "samplers" : [
                {
                    "input" : 21,
                    "interpolation" : "LINEAR",
                    "output" : 25
                }
            ]
        }
    ],
    "materials" : [
        {
            "alphaMode" : "BLEND",
            "doubleSided" : true,
            "emissiveFactor" : [
                0,
                0,
                0
            ],
            "name" : "tex_a_",
            "pbrMetallicRoughness" : {
                "baseColorTexture" : {
                    "index" : 0,
                    "texCoord" : 0
                },
                "metallicFactor" : 0,
                "roughnessFactor" : 0.5
            }
        },
        {
            "doubleSided" : true,
            "emissiveFactor" : [
                0,
                0,
                0
            ],
            "name" : "tex",
            "pbrMetallicRoughness" : {
                "baseColorTexture" : {
                    "index" : 1,
                    "texCoord" : 0
                },
                "metallicFactor" : 0,
                "roughnessFactor" : 0.5
            }
        },
        {
            "alphaMode" : "BLEND",
            "doubleSided" : true,
            "emissiveFactor" : [
                0,
                0,
                0
            ],
            "name" : "transparent",
            "pbrMetallicRoughness" : {
                "baseColorTexture" : {
                    "index" : 2,
                    "texCoord" : 0
                },
                "metallicFactor" : 0,
                "roughnessFactor" : 0.5
            }
        }
    ],
    "meshes" : [
        {
            "extras" : {
                "targetNames" : [
                    "Lattice"
                ]
            },
            "name" : "Sphere.006",
            "primitives" : [
                {
                    "attributes" : {
                        "POSITION" : 0,
                        "NORMAL" : 1,
                        "TEXCOORD_0" : 2
                    },
                    "indices" : 3,
                    "material" : 0,
                    "targets" : [
                        {
                            "POSITION" : 4,
                            "NORMAL" : 5
                        }
                    ]
                },
                {
                    "attributes" : {
                        "POSITION" : 6,
                        "NORMAL" : 7,
                        "TEXCOORD_0" : 8
                    },
                    "indices" : 9,
                    "material" : 0,
                    "targets" : [
                        {
                            "POSITION" : 10,
                            "NORMAL" : 11
                        }
                    ]
                },
                {
                    "attributes" : {
                        "POSITION" : 12,
                        "NORMAL" : 13,
                        "TEXCOORD_0" : 14
                    },
                    "indices" : 15,
                    "material" : 1,
                    "targets" : [
                        {
                            "POSITION" : 16,
                            "NORMAL" : 17
                        }
                    ]
                }
            ],
            "weights" : [
                1
            ]
        },
        {
            "name" : "Cube.023",
            "primitives" : [
                {
                    "attributes" : {
                        "POSITION" : 18,
                        "NORMAL" : 19
                    },
                    "indices" : 20,
                    "material" : 2
                }
            ]
        }
    ],
    "textures" : [
        {
            "source" : 0
        },
        {
            "source" : 0
        },
        {
            "source" : 1
        }
    ],
    "images" : [
        {
            "mimeType" : "image/png",
            "name" : "tex_01",
            "uri" : "tex_01.png"
        },
        {
            "mimeType" : "image/png",
            "name" : "clear",
            "uri" : "clear.png"
        }
    ],
    "accessors" : [
        {
            "bufferView" : 0,
            "componentType" : 5126,
            "count" : 2920,
            "max" : [
                7.964661598205566,
                52.675758361816406,
                7.964661598205566
            ],
            "min" : [
                -7.964667320251465,
                44.90605926513672,
                -7.964661598205566
            ],
            "type" : "VEC3"
        },
        {
            "bufferView" : 1,
            "componentType" : 5126,
            "count" : 2920,
            "type" : "VEC3"
        },
        {
            "bufferView" : 2,
            "componentType" : 5126,
            "count" : 2920,
            "type" : "VEC2"
        },
        {
            "bufferView" : 3,
            "componentType" : 5123,
            "count" : 7800,
            "type" : "SCALAR"
        },
        {
            "bufferView" : 4,
            "componentType" : 5126,
            "count" : 2920,
            "max" : [
                7.446454048156738,
                -7.497314453125,
                7.2929840087890625
            ],
            "min" : [
                -7.507334232330322,
                -11.729084014892578,
                -7.2929840087890625
            ],
            "type" : "VEC3"
        },
        {
            "bufferView" : 5,
            "componentType" : 5126,
            "count" : 2920,
            "type" : "VEC3"
        },
        {
            "bufferView" : 6,
            "componentType" : 5126,
            "count" : 1440,
            "max" : [
                7.9646501541137695,
                44.906063079833984,
                7.964659690856934
            ],
            "min" : [
                -7.96466064453125,
                44.136837005615234,
                -7.964653968811035
            ],
            "type" : "VEC3"
        },
        {
            "bufferView" : 7,
            "componentType" : 5126,
            "count" : 1440,
            "type" : "VEC3"
        },
        {
            "bufferView" : 8,
            "componentType" : 5126,
            "count" : 1440,
            "type" : "VEC2"
        },
        {
            "bufferView" : 9,
            "componentType" : 5123,
            "count" : 3840,
            "type" : "SCALAR"
        },
        {
            "bufferView" : 10,
            "componentType" : 5126,
            "count" : 1440,
            "max" : [
                7.389482021331787,
                -7.441761016845703,
                7.2317962646484375
            ],
            "min" : [
                -7.419076442718506,
                -8.156841278076172,
                -7.231800079345703
            ],
            "type" : "VEC3"
        },
        {
            "bufferView" : 11,
            "componentType" : 5126,
            "count" : 1440,
            "type" : "VEC3"
        },
        {
            "bufferView" : 12,
            "componentType" : 5126,
            "count" : 2234,
            "max" : [
                7.912379741668701,
                48.53382110595703,
                7.912362098693848
            ],
            "min" : [
                -7.912368297576904,
                1.0703086853027344,
                -7.9123735427856445
            ],
            "type" : "VEC3"
        },
        {
            "bufferView" : 13,
            "componentType" : 5126,
            "count" : 2234,
            "type" : "VEC3"
        },
        {
            "bufferView" : 14,
            "componentType" : 5126,
            "count" : 2234,
            "type" : "VEC2"
        },
        {
            "bufferView" : 15,
            "componentType" : 5123,
            "count" : 4566,
            "type" : "SCALAR"
        },
        {
            "bufferView" : 16,
            "componentType" : 5126,
            "count" : 2234,
            "max" : [
                7.408201694488525,
                0,
                7.252864360809326
            ],
            "min" : [
                -7.468973636627197,
                -9.484481811523438,
                -7.252858638763428
            ],
            "type" : "VEC3"
        },
        {
            "bufferView" : 17,
            "componentType" : 5126,
            "count" : 2234,
            "type" : "VEC3"
        },
        {
            "bufferView" : 18,
            "componentType" : 5126,
            "count" : 8,
            "max" : [
                0.5000002384185791,
                0.5,
                0.5000002980232239
            ],
            "min" : [
                -0.5000001788139343,
                -0.5,
                -0.5000001788139343
            ],
            "type" : "VEC3"
        },
        {
            "bufferView" : 19,
            "componentType" : 5126,
            "count" : 8,
            "type" : "VEC3"
        },
        {
            "bufferView" : 20,
            "componentType" : 5123,
            "count" : 36,
            "type" : "SCALAR"
        },
        {
            "bufferView" : 21,
            "componentType" : 5126,
            "count" : 41,
            "max" : [
                1.3333333333333333
            ],
            "min" : [
                0
            ],
            "type" : "SCALAR"
        },
        {
            "bufferView" : 22,
            "componentType" : 5126,
            "count" : 41,
            "type" : "VEC3"
        },
        {
            "bufferView" : 23,
            "componentType" : 5126,
            "count" : 41,
            "type" : "VEC4"
        },
        {
            "bufferView" : 24,
            "componentType" : 5126,
            "count" : 41,
            "type" : "VEC3"
        },
        {
            "bufferView" : 25,
            "componentType" : 5126,
            "count" : 41,
            "type" : "SCALAR"
        }
    ],
    "bufferViews" : [
        {
            "buffer" : 0,
            "byteLength" : 35040,
            "byteOffset" : 0
        },
        {
            "buffer" : 0,
            "byteLength" : 35040,
            "byteOffset" : 35040
        },
        {
            "buffer" : 0,
            "byteLength" : 23360,
            "byteOffset" : 70080
        },
        {
            "buffer" : 0,
            "byteLength" : 15600,
            "byteOffset" : 93440
        },
        {
            "buffer" : 0,
            "byteLength" : 35040,
            "byteOffset" : 109040
        },
        {
            "buffer" : 0,
            "byteLength" : 35040,
            "byteOffset" : 144080
        },
        {
            "buffer" : 0,
            "byteLength" : 17280,
            "byteOffset" : 179120
        },
        {
            "buffer" : 0,
            "byteLength" : 17280,
            "byteOffset" : 196400
        },
        {
            "buffer" : 0,
            "byteLength" : 11520,
            "byteOffset" : 213680
        },
        {
            "buffer" : 0,
            "byteLength" : 7680,
            "byteOffset" : 225200
        },
        {
            "buffer" : 0,
            "byteLength" : 17280,
            "byteOffset" : 232880
        },
        {
            "buffer" : 0,
            "byteLength" : 17280,
            "byteOffset" : 250160
        },
        {
            "buffer" : 0,
            "byteLength" : 26808,
            "byteOffset" : 267440
        },
        {
            "buffer" : 0,
            "byteLength" : 26808,
            "byteOffset" : 294248
        },
        {
            "buffer" : 0,
            "byteLength" : 17872,
            "byteOffset" : 321056
        },
        {
            "buffer" : 0,
            "byteLength" : 9132,
            "byteOffset" : 338928
        },
        {
            "buffer" : 0,
            "byteLength" : 26808,
            "byteOffset" : 348060
        },
        {
            "buffer" : 0,
            "byteLength" : 26808,
            "byteOffset" : 374868
        },
        {
            "buffer" : 0,
            "byteLength" : 96,
            "byteOffset" : 401676
        },
        {
            "buffer" : 0,
            "byteLength" : 96,
            "byteOffset" : 401772
        },
        {
            "buffer" : 0,
            "byteLength" : 72,
            "byteOffset" : 401868
        },
        {
            "buffer" : 0,
            "byteLength" : 164,
            "byteOffset" : 401940
        },
        {
            "buffer" : 0,
            "byteLength" : 492,
            "byteOffset" : 402104
        },
        {
            "buffer" : 0,
            "byteLength" : 656,
            "byteOffset" : 402596
        },
        {
            "buffer" : 0,
            "byteLength" : 492,
            "byteOffset" : 403252
        },
        {
            "buffer" : 0,
            "byteLength" : 164,
            "byteOffset" : 403744
        }
    ],
    "buffers" : [
        {
            "byteLength" : 403908,
            "uri" : "edl2020_chute.bin"
        }
    ]
}
