<!-- Generated by IcoMoon.io -->
<svg version="1.1" xmlns="http://www.w3.org/2000/svg" width="30" height="30" viewBox="0 0 30 30">
<title>auto-cam</title>
<path fill="#252527" opacity="0.6" d="M0 3v24c0 1.657 1.343 3 3 3h24c1.657 0 3-1.343 3-3v-24c0-1.657-1.343-3-3-3h-24c-1.657 0-3 1.343-3 3z"></path>
<path fill="#fff" opacity="0.4" d="M8.071 25.458h1.247l-2.593-6.208h-1.256l-2.593 6.208h1.256l0.47-1.12h3zM5.008 23.362l1.093-2.611 1.093 2.611z"></path>
<path fill="#fff" opacity="0.4" d="M12.391 25.568c1.608 0 2.738-1.139 2.738-2.756v-3.56h-1.12v3.524c0 1.030-0.669 1.771-1.618 1.771-0.94 0-1.608-0.741-1.608-1.771v-3.524h-1.13v3.56c0 1.618 1.139 2.756 2.738 2.756z"></path>
<path fill="#fff" opacity="0.4" d="M17.601 25.458h1.12v-5.178h1.988v-1.030h-5.096v1.030h1.988z"></path>
<path fill="#fff" opacity="0.4" d="M23.881 25.568c1.762 0 3.253-1.473 3.253-3.217s-1.491-3.208-3.253-3.208c-1.771 0-3.262 1.464-3.262 3.208s1.491 3.217 3.262 3.217zM23.881 24.538c-1.148 0-2.115-0.994-2.115-2.187 0-1.184 0.967-2.178 2.115-2.178 1.139 0 2.096 0.994 2.096 2.178 0 1.193-0.958 2.187-2.096 2.187z"></path>
<path fill="#fff" opacity="0.4" d="M5.86 6.698v11.424l6.268-3.887v-3.752l-0.389-0.234zM7.465 9.544l3.057 1.846v1.953l-3.057 1.895z"></path>
<path fill="#fff" opacity="0.4" d="M15.84 2.118c-1.844 0-3.355 1.511-3.355 3.355s1.511 3.355 3.355 3.355c1.844 0 3.355-1.511 3.355-3.355s-1.511-3.355-3.355-3.355zM15.84 3.618c1.034 0 1.855 0.822 1.855 1.855s-0.822 1.855-1.855 1.855-1.855-0.822-1.855-1.855 0.822-1.855 1.855-1.855z"></path>
<path fill="#fff" opacity="0.4" d="M21.020 3.448c-1.424 0-2.594 1.171-2.594 2.596s1.169 2.594 2.594 2.594c1.424 0 2.596-1.169 2.596-2.594s-1.171-2.596-2.596-2.596zM21.020 4.948c0.614 0 1.096 0.482 1.096 1.096s-0.482 1.094-1.096 1.094c-0.614 0-1.094-0.48-1.094-1.094s0.48-1.096 1.094-1.096z"></path>
<path fill="#fff" opacity="0.4" d="M12.27 8.048l-0.76 0.76v6.871l0.76 0.76h11.117l0.76-0.76v-6.871l-0.76-0.76zM13.030 9.567h9.598v5.352h-9.598z"></path>
</svg>
