<!-- Generated by IcoMoon.io -->
<svg version="1.1" xmlns="http://www.w3.org/2000/svg" width="30" height="30" viewBox="0 0 30 30">
<title>clock</title>
<path fill="#252527" opacity="0.6" d="M-0.010 3v24c0 1.657 1.343 3 3 3h24c1.657 0 3-1.343 3-3v-24c0-1.657-1.343-3-3-3h-24c-1.657 0-3 1.343-3 3z"></path>
<path fill="#fff" opacity="0.4" d="M14.991 5.005c-5.513 0-10 4.487-10 10s4.487 10 10 10c5.4 0 9.756-4.323 9.935-9.68 0.041-0.094 0.064-0.203 0.064-0.318 0-0.001 0-0.001 0-0.002v0c-0-0.113-0.023-0.22-0.065-0.318l0.002 0.005c-0.175-5.361-4.535-9.688-9.937-9.688zM14.991 6.638c4.63 0 8.367 3.737 8.367 8.367s-3.737 8.367-8.367 8.367c-4.63 0-8.367-3.737-8.367-8.367s3.737-8.367 8.367-8.367z"></path>
<path fill="#fff" opacity="0.4" d="M16.693 15.004c0 0.94-0.762 1.702-1.702 1.702v0c-0.94 0-1.702-0.762-1.702-1.702v0c0-0.94 0.762-1.702 1.702-1.702v0c0.94 0 1.702 0.762 1.702 1.702v0z"></path>
<path fill="#fff" opacity="0.4" d="M14.223 14.4s0.134-4.020 0.758-4.020c0.757 0 0.758 4.020 0.758 4.020z"></path>
<path fill="#fff" opacity="0.4" d="M16.181 15.287c5.183 4.36 4.873 4.787 4.724 4.965-0.203 0.241-0.474 0.592-5.7-3.805z"></path>
<path fill="#fff" opacity="0.4" d="M14.991 5.179c-0.451 0-0.816 0.366-0.817 0.816v1.294c0 0 0 0.001 0 0.001 0 0.451 0.366 0.817 0.817 0.817h0c0.451-0 0.817-0.366 0.817-0.817 0-0 0-0.001 0-0.002v0-1.294c-0-0.451-0.366-0.816-0.817-0.817h-0z"></path>
<path fill="#fff" opacity="0.4" d="M14.991 21.855c-0.451 0-0.816 0.366-0.817 0.817v1.294c0 0.451 0.366 0.816 0.817 0.817h0c0.451-0 0.816-0.366 0.817-0.817v-1.294c-0-0.451-0.366-0.816-0.817-0.817h-0z"></path>
<path fill="#fff" opacity="0.4" d="M5.871 14.19c-0.451 0-0.816 0.366-0.817 0.817v0c0 0.451 0.366 0.816 0.816 0.817h1.294c0.451-0 0.816-0.366 0.817-0.817v-0c-0-0.451-0.366-0.816-0.816-0.817h-0z"></path>
<path fill="#fff" opacity="0.4" d="M22.721 14.19c-0 0-0.001 0-0.001 0-0.451 0-0.817 0.366-0.817 0.817v0c0 0.451 0.366 0.817 0.817 0.817 0 0 0.001 0 0.002 0h1.294c0.451-0 0.816-0.366 0.817-0.817v-0c-0-0.451-0.366-0.816-0.816-0.817h-0z"></path>
</svg>
