<!-- Generated by IcoMoon.io -->
<svg version="1.1" xmlns="http://www.w3.org/2000/svg" width="30" height="30" viewBox="0 0 30 30">
<title>close-fixed</title>
<path fill="#fff" d="M12.725 11.5l5.775 5.775c0.338 0.338 0.338 0.887 0 1.225v0c-0.338 0.338-0.887 0.338-1.225 0l-5.775-5.775c-0.338-0.338-0.338-0.887 0-1.225v0c0.338-0.338 0.887-0.338 1.225 0z"></path>
<path fill="#fff" d="M11.5 17.275l5.775-5.775c0.338-0.338 0.887-0.338 1.225 0v0c0.338 0.338 0.338 0.887 0 1.225l-5.775 5.775c-0.338 0.338-0.887 0.338-1.225 0v0c-0.338-0.338-0.338-0.887 0-1.225z"></path>
</svg>
