<!-- Generated by IcoMoon.io -->
<svg version="1.1" xmlns="http://www.w3.org/2000/svg" width="30" height="30" viewBox="0 0 30 30">
<title>collapse-hover</title>
<path fill="#95959d" opacity="0.2" d="M3 0h24c1.657 0 3 1.343 3 3v24c0 1.657-1.343 3-3 3h-24c-1.657 0-3-1.343-3-3v-24c0-1.657 1.343-3 3-3z"></path>
<path fill="#fff" d="M19.135 15.121c0.34 0.34 0.34 0.891 0 1.23l-4.635 4.635-4.635-4.635c-0.34-0.34-0.34-0.891 0-1.23s0.891-0.34 1.23 0l3.404 3.404 3.404-3.404c0.34-0.34 0.891-0.34 1.23 0z"></path>
<path fill="#fff" d="M19.135 9.49c0.34 0.34 0.34 0.891 0 1.23l-4.635 4.635-4.635-4.635c-0.34-0.34-0.34-0.891 0-1.23s0.891-0.34 1.23 0l3.404 3.404 3.404-3.404c0.34-0.34 0.891-0.34 1.23 0z"></path>
</svg>
