<!-- Generated by IcoMoon.io -->
<svg version="1.1" xmlns="http://www.w3.org/2000/svg" width="30" height="30" viewBox="0 0 30 30">
<title>collapse-side-hover</title>
<path fill="#95959d" opacity="0.2" d="M30 3v24c0 1.657-1.343 3-3 3h-24c-1.657 0-3-1.343-3-3v-24c0-1.657 1.343-3 3-3h24c1.657 0 3 1.343 3 3z"></path>
<path fill="#fff" d="M14.879 19.135c-0.34 0.34-0.891 0.34-1.23 0l-4.635-4.635 4.635-4.635c0.34-0.34 0.891-0.34 1.23 0s0.34 0.891 0 1.23l-3.404 3.404 3.404 3.404c0.34 0.34 0.34 0.891 0 1.23z"></path>
<path fill="#fff" d="M20.51 19.135c-0.34 0.34-0.891 0.34-1.23 0l-4.635-4.635 4.635-4.635c0.34-0.34 0.891-0.34 1.23 0s0.34 0.891 0 1.23l-3.404 3.404 3.404 3.404c0.34 0.34 0.34 0.891 0 1.23z"></path>
</svg>
