<!-- Generated by IcoMoon.io -->
<svg version="1.1" xmlns="http://www.w3.org/2000/svg" width="30" height="30" viewBox="0 0 30 30">
<title>controls-fixed</title>
<path fill="#252527" opacity="0.6" d="M3 0h24c1.657 0 3 1.343 3 3v24c0 1.657-1.343 3-3 3h-24c-1.657 0-3-1.343-3-3v-24c0-1.657 1.343-3 3-3z"></path>
<path fill="#fff" opacity="0.4" d="M9.5 21c0 0.276 0.224 0.5 0.5 0.5s0.5-0.224 0.5-0.5v-6.5h1v-3h-1v-1.5c0-0.276-0.224-0.5-0.5-0.5s-0.5 0.224-0.5 0.5v1.5h-1v3h1v6.5zM14.5 21c0 0.276 0.224 0.5 0.5 0.5s0.5-0.224 0.5-0.5v-4.5h1v-3h-1v-3.5c0-0.276-0.224-0.5-0.5-0.5s-0.5 0.224-0.5 0.5v3.5h-1v3h1v4.5zM20 21.5c-0.276 0-0.5-0.224-0.5-0.5v-1.5h-1v-3h1v-6.5c0-0.276 0.224-0.5 0.5-0.5s0.5 0.224 0.5 0.5v6.5h1v3h-1v1.5c0 0.276-0.224 0.5-0.5 0.5z"></path>
</svg>
