<svg width="30" height="30" version="1.1" viewBox="0 0 30 30" xmlns="http://www.w3.org/2000/svg">
 <rect width="30" height="30" rx="3" fill="#95959D" opacity=".2"/>
 <mask fill="white">
  <path d="m9.5 21c0 0.2761 0.22386 0.5 0.5 0.5 0.2761 0 0.5-0.2239 0.5-0.5v-6.5h1v-3h-1v-1.5c0-0.27614-0.2239-0.5-0.5-0.5-0.27614 0-0.5 0.22386-0.5 0.5v1.5h-1v3h1v6.5zm5 0c0 0.2761 0.2239 0.5 0.5 0.5s0.5-0.2239 0.5-0.5v-4.5h1v-3h-1v-3.5c0-0.27614-0.2239-0.5-0.5-0.5s-0.5 0.22386-0.5 0.5v3.5h-1v3h1v4.5zm5.5 0.5c-0.2761 0-0.5-0.2239-0.5-0.5v-1.5h-1v-3h1v-6.5c0-0.27614 0.2239-0.5 0.5-0.5s0.5 0.22386 0.5 0.5v6.5h1v3h-1v1.5c0 0.2761-0.2239 0.5-0.5 0.5z" clip-rule="evenodd" fill-rule="evenodd"/>
 </mask>
 <path d="m9.5 21c0 0.2761 0.22386 0.5 0.5 0.5 0.2761 0 0.5-0.2239 0.5-0.5v-6.5h1v-3h-1v-1.5c0-0.27614-0.2239-0.5-0.5-0.5-0.27614 0-0.5 0.22386-0.5 0.5v1.5h-1v3h1v6.5zm5 0c0 0.2761 0.2239 0.5 0.5 0.5s0.5-0.2239 0.5-0.5v-4.5h1v-3h-1v-3.5c0-0.27614-0.2239-0.5-0.5-0.5s-0.5 0.22386-0.5 0.5v3.5h-1v3h1v4.5zm5.5 0.5c-0.2761 0-0.5-0.2239-0.5-0.5v-1.5h-1v-3h1v-6.5c0-0.27614 0.2239-0.5 0.5-0.5s0.5 0.22386 0.5 0.5v6.5h1v3h-1v1.5c0 0.2761-0.2239 0.5-0.5 0.5z" clip-rule="evenodd" fill="#fff" fill-rule="evenodd"/>
</svg>
