<?xml version="1.0" encoding="UTF-8" standalone="no"?>
<svg
   xmlns:dc="http://purl.org/dc/elements/1.1/"
   xmlns:cc="http://creativecommons.org/ns#"
   xmlns:rdf="http://www.w3.org/1999/02/22-rdf-syntax-ns#"
   xmlns:svg="http://www.w3.org/2000/svg"
   xmlns="http://www.w3.org/2000/svg"
   xmlns:sodipodi="http://sodipodi.sourceforge.net/DTD/sodipodi-0.dtd"
   xmlns:inkscape="http://www.inkscape.org/namespaces/inkscape"
   inkscape:version="1.0 (4035a4fb49, 2020-05-01)"
   sodipodi:docname="controls-hover.svg"
   id="svg9588"
   version="1.1"
   fill="none"
   viewBox="0 0 30 30"
   height="30"
   width="30">
  <metadata
     id="metadata9594">
    <rdf:RDF>
      <cc:Work
         rdf:about="">
        <dc:format>image/svg+xml</dc:format>
        <dc:type
           rdf:resource="http://purl.org/dc/dcmitype/StillImage" />
      </cc:Work>
    </rdf:RDF>
  </metadata>
  <defs
     id="defs9592" />
  <sodipodi:namedview
     inkscape:current-layer="svg9588"
     inkscape:window-maximized="1"
     inkscape:window-y="-8"
     inkscape:window-x="-8"
     inkscape:cy="12.765058"
     inkscape:cx="23.299206"
     inkscape:zoom="20.034692"
     showgrid="false"
     id="namedview9590"
     inkscape:window-height="1017"
     inkscape:window-width="1920"
     inkscape:pageshadow="2"
     inkscape:pageopacity="0"
     guidetolerance="10"
     gridtolerance="10"
     objecttolerance="10"
     borderopacity="1"
     bordercolor="#666666"
     pagecolor="#ffffff" />
  <rect
     id="rect9579"
     fill="#95959D"
     rx="3"
     height="30"
     width="30"
     opacity="0.2" />
  <mask
     fill="white"
     id="path-4-inside-1">
    <path
       id="path9581"
       d="M9.5 21C9.5 21.2761 9.72386 21.5 10 21.5C10.2761 21.5 10.5 21.2761 10.5 21L10.5 14.5H11.5L11.5 11.5H10.5L10.5 10C10.5 9.72386 10.2761 9.5 10 9.5C9.72386 9.5 9.5 9.72386 9.5 10L9.5 11.5H8.5V14.5H9.5L9.5 21ZM14.5 21C14.5 21.2761 14.7239 21.5 15 21.5C15.2761 21.5 15.5 21.2761 15.5 21V16.5H16.5V13.5H15.5V10C15.5 9.72386 15.2761 9.5 15 9.5C14.7239 9.5 14.5 9.72386 14.5 10V13.5H13.5V16.5H14.5V21ZM20 21.5C19.7239 21.5 19.5 21.2761 19.5 21V19.5H18.5V16.5H19.5L19.5 10C19.5 9.72386 19.7239 9.5 20 9.5C20.2761 9.5 20.5 9.72386 20.5 10L20.5 16.5H21.5V19.5H20.5V21C20.5 21.2761 20.2761 21.5 20 21.5Z"
       clip-rule="evenodd"
       fill-rule="evenodd" />
  </mask>
  <path
     id="path9584"
     fill="white"
     d="M9.5 21C9.5 21.2761 9.72386 21.5 10 21.5C10.2761 21.5 10.5 21.2761 10.5 21L10.5 14.5H11.5L11.5 11.5H10.5L10.5 10C10.5 9.72386 10.2761 9.5 10 9.5C9.72386 9.5 9.5 9.72386 9.5 10L9.5 11.5H8.5V14.5H9.5L9.5 21ZM14.5 21C14.5 21.2761 14.7239 21.5 15 21.5C15.2761 21.5 15.5 21.2761 15.5 21V16.5H16.5V13.5H15.5V10C15.5 9.72386 15.2761 9.5 15 9.5C14.7239 9.5 14.5 9.72386 14.5 10V13.5H13.5V16.5H14.5V21ZM20 21.5C19.7239 21.5 19.5 21.2761 19.5 21V19.5H18.5V16.5H19.5L19.5 10C19.5 9.72386 19.7239 9.5 20 9.5C20.2761 9.5 20.5 9.72386 20.5 10L20.5 16.5H21.5V19.5H20.5V21C20.5 21.2761 20.2761 21.5 20 21.5Z"
     clip-rule="evenodd"
     fill-rule="evenodd" />
</svg>
