<svg width="30" height="30" viewBox="0 0 30 30" fill="none" xmlns="http://www.w3.org/2000/svg">
<rect opacity="0.6" width="30" height="30" rx="3" fill="#252527"/>
<g opacity="0.4">
<path d="M20.6471 13.4131C20.4527 13.4131 20.2941 13.2546 20.2941 13.0602V10.4187C20.2941 10.3952 20.2845 10.3718 20.2679 10.3552C20.2335 10.3208 20.1783 10.3208 20.1439 10.3552L16.205 14.2955C16.0672 14.4333 15.8438 14.4333 15.7059 14.2955C15.5681 14.1576 15.5681 13.9343 15.7059 13.7964L19.6448 9.85615C19.6613 9.83961 19.6696 9.81755 19.6696 9.79411C19.6696 9.74586 19.631 9.70588 19.5814 9.70588H16.9412C16.7468 9.70588 16.5882 9.54733 16.5882 9.35294C16.5882 9.15855 16.7468 9 16.9412 9H20.6471C20.8415 9 21 9.15855 21 9.35294V13.0602C21 13.2546 20.8415 13.4131 20.6471 13.4131ZM9.35295 16.5869C9.54735 16.5869 9.7059 16.7454 9.7059 16.9398V19.5813C9.7059 19.6048 9.71555 19.6282 9.73209 19.6448C9.76656 19.6792 9.82171 19.6792 9.85617 19.6448L13.7964 15.7045C13.9343 15.5667 14.1576 15.5667 14.2955 15.7045C14.4334 15.8424 14.4334 16.0657 14.2955 16.2036L10.3553 20.1438C10.3387 20.1604 10.3304 20.1825 10.3304 20.2059C10.3304 20.2541 10.3691 20.2941 10.4187 20.2941H13.0602C13.2546 20.2941 13.4132 20.4527 13.4132 20.6471C13.4132 20.8415 13.2546 21 13.0602 21H9.35294C9.15855 21 9 20.8415 9 20.6471V16.9398C9 16.7454 9.15856 16.5869 9.35295 16.5869Z" fill="white" stroke="white"/>
</g>
</svg>
