<svg width="30" height="30" fill="none" version="1.1" viewBox="0 0 30 30" xmlns="http://www.w3.org/2000/svg">
 <rect width="30" height="30" rx="3" fill="#252527" opacity=".6"/>
 <g opacity=".4">
  <g fill="#fff" opacity="1" shape-rendering="auto">
   <path d="m20.647 13.413c-0.1944 0-0.353-0.1585-0.353-0.3529v-2.6415c0-0.0235-0.0096-0.0469-0.0262-0.0635-0.0344-0.0344-0.0896-0.0344-0.124 0l-3.9389 3.9403c-0.1378 0.1378-0.3612 0.1378-0.4991 0-0.1378-0.1379-0.1378-0.3612 0-0.4991l3.9389-3.9402c0.0165-0.01654 0.0248-0.0386 0.0248-0.06204 0-0.04825-0.0386-0.08823-0.0882-0.08823h-2.6402c-0.1944 0-0.353-0.15855-0.353-0.35294s0.1586-0.35294 0.353-0.35294h3.7059c0.1944 0 0.3529 0.15855 0.3529 0.35294v3.7073c0 0.1944-0.1585 0.3529-0.3529 0.3529zm-11.294 3.1738c0.1944 0 0.35295 0.1585 0.35295 0.3529v2.6415c0 0.0235 0.00965 0.0469 0.02619 0.0635 0.03447 0.0344 0.08962 0.0344 0.12408 0l3.9402-3.9403c0.1379-0.1378 0.3612-0.1378 0.4991 0 0.1379 0.1379 0.1379 0.3612 0 0.4991l-3.9402 3.9402c-0.0166 0.0166-0.0249 0.0387-0.0249 0.0621 0 0.0482 0.0387 0.0882 0.0883 0.0882h2.6415c0.1944 0 0.353 0.1586 0.353 0.353s-0.1586 0.3529-0.353 0.3529h-3.7073c-0.19439 0-0.35294-0.1585-0.35294-0.3529v-3.7073c0-0.1944 0.15856-0.3529 0.35295-0.3529z" color="#000000" color-rendering="auto" dominant-baseline="auto" image-rendering="auto" solid-color="#000000" stop-color="#000000" style="font-feature-settings:normal;font-variant-alternates:normal;font-variant-caps:normal;font-variant-east-asian:normal;font-variant-ligatures:normal;font-variant-numeric:normal;font-variant-position:normal;font-variation-settings:normal;inline-size:0;isolation:auto;mix-blend-mode:normal;shape-margin:0;shape-padding:0;text-decoration-color:#000000;text-decoration-line:none;text-decoration-style:solid;text-indent:0;text-orientation:mixed;text-transform:none;white-space:normal"/>
   <path d="m16.941 8.5c-0.46626 0-0.85352 0.38716-0.85352 0.85352 0 0.46635 0.38725 0.85156 0.85352 0.85156h1.6465l-3.2363 3.2383c-0.32856 0.3288-0.32856 0.87627 0 1.2051 0.32889 0.32865 0.87817 0.32886 1.207 0l3.2363-3.2363v1.6484c0 0.46635 0.38539 0.85352 0.85156 0.85352 0.46618 0 0.85352-0.38734 0.85352-0.85352v-3.707c0-0.46618-0.38725-0.85352-0.85352-0.85352zm-3.498 6.8516-3.2383 3.2363v-1.6484c0-0.46626-0.38539-0.85352-0.85156-0.85352-0.46618 0-0.85352 0.38724-0.85352 0.85352v3.707c0 0.46626 0.38734 0.85352 0.85352 0.85352h3.707c0.46618 0 0.85352-0.38717 0.85352-0.85352 0-0.46635-0.38717-0.85156-0.85352-0.85156h-1.6484l3.2363-3.2383c0.32874-0.32874 0.32874-0.87634 0-1.2051-0.3288-0.32856-0.87627-0.32856-1.2051 0z" color="#000000" color-rendering="auto" dominant-baseline="auto" image-rendering="auto" solid-color="#000000" stop-color="#000000" style="font-feature-settings:normal;font-variant-alternates:normal;font-variant-caps:normal;font-variant-east-asian:normal;font-variant-ligatures:normal;font-variant-numeric:normal;font-variant-position:normal;font-variation-settings:normal;inline-size:0;isolation:auto;mix-blend-mode:normal;shape-margin:0;shape-padding:0;text-decoration-color:#000000;text-decoration-line:none;text-decoration-style:solid;text-indent:0;text-orientation:mixed;text-transform:none;white-space:normal"/>
  </g>
 </g>
</svg>
