<!-- Generated by IcoMoon.io -->
<svg version="1.1" xmlns="http://www.w3.org/2000/svg" width="30" height="30" viewBox="0 0 30 30">
<title>free-cam-hover</title>
<path fill="#95959d" opacity="0.2" d="M0 3.003v24c0 1.657 1.343 3 3 3h24c1.657 0 3-1.343 3-3v-24c0-1.657-1.343-3-3-3h-24c-1.657 0-3 1.343-3 3z"></path>
<path fill="#fff" d="M8.6 20.283v-1.030h-4.672v6.208h1.13v-2.575h3.208v-1.030h-3.208v-1.572z"></path>
<path fill="#fff" d="M14.67 25.463l-1.554-2.205c0.895-0.28 1.5-1.003 1.5-1.943 0-1.211-0.994-2.060-2.322-2.060h-2.702v6.208h1.13v-2.087h1.202l1.464 2.087zM10.721 20.294h1.446c0.768 0 1.301 0.389 1.301 1.021s-0.533 1.021-1.301 1.021h-1.446z"></path>
<path fill="#fff" d="M20.32 20.283v-1.030h-4.672v6.208h4.672v-1.030h-3.542v-1.618h3.208v-1.030h-3.208v-1.5z"></path>
<path fill="#fff" d="M26.070 20.283v-1.030h-4.672v6.208h4.672v-1.030h-3.542v-1.618h3.208v-1.030h-3.208v-1.5z"></path>
<path fill="#fff" d="M5.86 6.703v11.424l6.268-3.887v-3.752l-0.389-0.234zM7.465 9.548l3.057 1.846v1.953l-3.057 1.895z"></path>
<path fill="#fff" d="M15.84 2.123c-1.844 0-3.355 1.511-3.355 3.355s1.511 3.355 3.355 3.355c1.844 0 3.355-1.511 3.355-3.355s-1.511-3.355-3.355-3.355zM15.84 3.623c1.034 0 1.855 0.822 1.855 1.855s-0.822 1.855-1.855 1.855-1.855-0.822-1.855-1.855 0.822-1.855 1.855-1.855z"></path>
<path fill="#fff" d="M21.020 3.453c-1.424 0-2.594 1.171-2.594 2.596s1.169 2.594 2.594 2.594c1.424 0 2.596-1.169 2.596-2.594s-1.171-2.596-2.596-2.596zM21.020 4.953c0.614 0 1.096 0.482 1.096 1.096s-0.482 1.094-1.096 1.094c-0.614 0-1.094-0.48-1.094-1.094s0.48-1.096 1.094-1.096z"></path>
<path fill="#fff" d="M12.27 8.053l-0.76 0.76v6.871l0.76 0.76h11.117l0.76-0.76v-6.871l-0.76-0.76zM13.030 9.572h9.598v5.352h-9.598z"></path>
</svg>
