<!-- Generated by IcoMoon.io -->
<svg version="1.1" xmlns="http://www.w3.org/2000/svg" width="30" height="30" viewBox="0 0 30 30">
<title>free-cam</title>
<path fill="#252527" opacity="0.6" d="M-0.010 2.995v24c0 1.657 1.343 3 3 3h24c1.657 0 3-1.343 3-3v-24c0-1.657-1.343-3-3-3h-24c-1.657 0-3 1.343-3 3z"></path>
<path fill="#fff" opacity="0.4" d="M8.59 20.275v-1.030h-4.672v6.208h1.13v-2.575h3.208v-1.030h-3.208v-1.572z"></path>
<path fill="#fff" opacity="0.4" d="M14.66 25.455l-1.554-2.205c0.895-0.28 1.5-1.003 1.5-1.943 0-1.211-0.994-2.060-2.322-2.060h-2.702v6.208h1.13v-2.087h1.202l1.464 2.087zM10.711 20.286h1.446c0.768 0 1.301 0.389 1.301 1.021s-0.533 1.021-1.301 1.021h-1.446z"></path>
<path fill="#fff" opacity="0.4" d="M20.31 20.275v-1.030h-4.672v6.208h4.672v-1.030h-3.542v-1.618h3.208v-1.030h-3.208v-1.5z"></path>
<path fill="#fff" opacity="0.4" d="M26.060 20.275v-1.030h-4.672v6.208h4.672v-1.030h-3.542v-1.618h3.208v-1.030h-3.208v-1.5z"></path>
<path fill="#fff" opacity="0.4" d="M5.849 6.695v11.424l6.268-3.887v-3.752l-0.389-0.234zM7.455 9.541l3.057 1.846v1.953l-3.057 1.895z"></path>
<path fill="#fff" opacity="0.4" d="M15.829 2.115c-1.844 0-3.355 1.511-3.355 3.355s1.511 3.355 3.355 3.355c1.844 0 3.355-1.511 3.355-3.355s-1.511-3.355-3.355-3.355zM15.829 3.615c1.034 0 1.855 0.822 1.855 1.855s-0.822 1.855-1.855 1.855-1.855-0.822-1.855-1.855 0.822-1.855 1.855-1.855z"></path>
<path fill="#fff" opacity="0.4" d="M21.009 3.445c-1.424 0-2.594 1.171-2.594 2.596s1.169 2.594 2.594 2.594c1.424 0 2.596-1.169 2.596-2.594s-1.171-2.596-2.596-2.596zM21.009 4.945c0.614 0 1.096 0.482 1.096 1.096s-0.482 1.094-1.096 1.094c-0.614 0-1.094-0.48-1.094-1.094s0.48-1.096 1.094-1.096z"></path>
<path fill="#fff" opacity="0.4" d="M12.259 8.045l-0.76 0.76v6.871l0.76 0.76h11.117l0.76-0.76v-6.871l-0.76-0.76zM13.019 9.564h9.598v5.352h-9.598z"></path>
</svg>
