<!-- Generated by IcoMoon.io -->
<svg version="1.1" xmlns="http://www.w3.org/2000/svg" width="30" height="30" viewBox="0 0 30 30">
<title>fullscreen-fixed</title>
<path fill="#252527" opacity="0.6" d="M3 0h24c1.657 0 3 1.343 3 3v24c0 1.657-1.343 3-3 3h-24c-1.657 0-3-1.343-3-3v-24c0-1.657 1.343-3 3-3z"></path>
<path fill="#fff" opacity="0.4" d="M20.647 13.413c-0.194 0-0.353-0.158-0.353-0.353v-2.641c0-0.023-0.010-0.047-0.026-0.063-0.034-0.034-0.090-0.034-0.124 0l-3.939 3.94c-0.138 0.138-0.361 0.138-0.499 0s-0.138-0.361 0-0.499l3.939-3.94c0.016-0.017 0.025-0.039 0.025-0.062 0-0.048-0.039-0.088-0.088-0.088h-2.64c-0.194 0-0.353-0.159-0.353-0.353s0.159-0.353 0.353-0.353h3.706c0.194 0 0.353 0.159 0.353 0.353v3.707c0 0.194-0.158 0.353-0.353 0.353zM9.353 16.587c0.194 0 0.353 0.158 0.353 0.353v2.641c0 0.023 0.010 0.047 0.026 0.063 0.034 0.034 0.090 0.034 0.124 0l3.94-3.94c0.138-0.138 0.361-0.138 0.499 0s0.138 0.361 0 0.499l-3.94 3.94c-0.017 0.017-0.025 0.039-0.025 0.062 0 0.048 0.039 0.088 0.088 0.088h2.641c0.194 0 0.353 0.159 0.353 0.353s-0.159 0.353-0.353 0.353h-3.707c-0.194 0-0.353-0.158-0.353-0.353v-3.707c0-0.194 0.159-0.353 0.353-0.353z"></path>
<path fill="#fff" opacity="0.4" d="M16.941 8.5c-0.466 0-0.854 0.387-0.854 0.854s0.387 0.852 0.854 0.852h1.647l-3.236 3.238c-0.329 0.329-0.329 0.876 0 1.205s0.878 0.329 1.207 0l3.236-3.236v1.648c0 0.466 0.385 0.854 0.852 0.854s0.854-0.387 0.854-0.854v-3.707c0-0.466-0.387-0.854-0.854-0.854zM13.443 15.352l-3.238 3.236v-1.648c0-0.466-0.385-0.854-0.852-0.854s-0.854 0.387-0.854 0.854v3.707c0 0.466 0.387 0.854 0.854 0.854h3.707c0.466 0 0.854-0.387 0.854-0.854s-0.387-0.852-0.854-0.852h-1.648l3.236-3.238c0.329-0.329 0.329-0.876 0-1.205s-0.876-0.329-1.205 0z"></path>
</svg>
