<svg width="30" height="30" version="1.1" viewBox="0 0 30 30" xmlns="http://www.w3.org/2000/svg" xmlns:xlink="http://www.w3.org/1999/xlink">
 <g transform="translate(-255.73 -226.48)">
  <g transform="translate(761.84 -364.06)">
   <g transform="translate(-506.11 590.54)" fill="none">
    <rect width="30" height="30" rx="3" fill="#252527" opacity=".6"/>
   </g>
   <g fill="#fff">
    <path d="m-491.31 598.39c-3.5468 0.0336-7.0599 2.2554-9.0606 6.7715 0.63965 1.288 1.3754 2.3876 2.1719 3.3203l1.8359-1.7715a5.442 5.442 0 0 1-0.18946-1.4258 5.442 5.442 0 0 1 5.4414-5.4414 5.442 5.442 0 0 1 1.6133 0.24609l1.2188-1.1758c-0.9904-0.35009-2.0111-0.53309-3.0312-0.52344zm7.2637 3.4238-1.8809 1.8164a5.442 5.442 0 0 1 0.25781 1.6543 5.442 5.442 0 0 1-5.4414 5.4414 5.442 5.442 0 0 1-1.8418-0.32226l-1.1758 1.1367c4.4453 1.8256 9.4587-0.31232 12.277-6.3789-0.60972-1.3067-1.3583-2.4156-2.1953-3.3477z" opacity=".4"/>
    <circle cx="-491.11" cy="605.29" r="2.5462" opacity=".4"/>
    <path d="m-483.56 596.78c-0.24599-4e-3 -0.49366 0.0844-0.68555 0.26953l-5.1484 4.9668a3.6952 3.6952 0 0 1 1.6133 1.6699l5.1465-4.9648c0.38378-0.37019 0.39559-0.9756 0.0254-1.3594l-0.27539-0.28711c-0.1851-0.19189-0.42979-0.29049-0.67578-0.29492zm-10.883 10.107-5.1445 4.9629c-0.38378 0.37019-0.39559 0.9756-0.0254 1.3594l0.27539 0.28711c0.37019 0.38378 0.97755 0.39558 1.3613 0.0254l5.1445-4.9629a3.6952 3.6952 0 0 1-1.6113-1.6719z" opacity=".4"/>
   </g>
  </g>
 </g>
</svg>
