<!-- Generated by IcoMoon.io -->
<svg version="1.1" xmlns="http://www.w3.org/2000/svg" width="30" height="30" viewBox="0 0 30 30">
<title>info</title>
<path fill="#fff" d="M16.315 8.222q0.596 0 1 0.414 0.414 0.414 0.414 1t-0.414 1.001-1 0.414q-0.577 0-0.991-0.414t-0.414-1.001 0.404-1q0.414-0.414 1-0.414zM16.911 12.647l-1.972 6.84q-0.164 0.587-0.164 0.77 0 0.106 0.086 0.202 0.086 0.087 0.183 0.087 0.163 0 0.327-0.144 0.433-0.356 1.039-1.289l0.327 0.193q-1.452 2.53-3.088 2.53-0.625 0-1-0.346-0.365-0.356-0.365-0.895 0-0.356 0.163-0.904l1.337-4.599q0.192-0.664 0.192-1.001 0-0.212-0.183-0.375t-0.5-0.163q-0.144 0-0.346 0.008l0.125-0.385 3.26-0.529z"></path>
<path fill="#fff" d="M15.014 4.037c-6.066 0-10.997 4.933-10.997 11s4.932 11 10.997 11c5.96 0 10.774-4.78 10.942-10.702 0.038-0.088 0.060-0.19 0.061-0.298v-0c-0.001-0.108-0.023-0.21-0.063-0.303l0.002 0.005c-0.168-5.921-4.982-10.702-10.942-10.702zM15.014 5.6c5.221 0 9.44 4.215 9.44 9.437s-4.219 9.437-9.44 9.437c-5.221 0-9.435-4.215-9.435-9.437s4.214-9.437 9.435-9.437z"></path>
</svg>
