<!-- Generated by IcoMoon.io -->
<svg version="1.1" xmlns="http://www.w3.org/2000/svg" width="30" height="30" viewBox="0 0 30 30">
<title>km</title>
<path fill="#252527" opacity="0.6" d="M0 3v24c0 1.657 1.343 3 3 3h24c1.657 0 3-1.343 3-3v-24c0-1.657-1.343-3-3-3h-24c-1.657 0-3 1.343-3 3z"></path>
<path fill="#fff" opacity="0.4" d="M12.4 12.65h-2.019l-3.141 3.435v-5.987h-1.711v9.801h1.711v-1.809l1.024-1.080 2.047 2.888h1.991l-2.888-4.010z"></path>
<path fill="#fff" opacity="0.4" d="M21.82 12.48c-1.080 0-1.991 0.533-2.342 1.374-0.449-0.855-1.29-1.374-2.314-1.374-0.911 0-1.655 0.449-2.019 1.15v-0.982h-1.711v7.249h1.711v-4.445c0-0.883 0.659-1.514 1.584-1.514 0.841 0 1.416 0.673 1.416 1.627v4.333h1.669v-4.445c0-0.883 0.645-1.514 1.584-1.514 0.827 0 1.402 0.673 1.402 1.627v4.333h1.669v-4.613c0-1.641-1.136-2.804-2.65-2.804z"></path>
</svg>
