<!-- Generated by IcoMoon.io -->
<svg version="1.1" xmlns="http://www.w3.org/2000/svg" width="30" height="30" viewBox="0 0 30 30">
<title>menu-fixed</title>
<path fill="#fff" d="M21.522 9.195c0 0.66-0.535 1.195-1.195 1.195h-10.655c-0.66 0-1.195-0.535-1.195-1.195s0.535-1.195 1.195-1.195h10.655c0.66 0 1.195 0.535 1.195 1.195z"></path>
<path fill="#fff" d="M21.522 15c0 0.66-0.535 1.195-1.195 1.195h-10.655c-0.66 0-1.195-0.535-1.195-1.195s0.535-1.195 1.195-1.195h10.655c0.66 0 1.195 0.535 1.195 1.195z"></path>
<path fill="#fff" d="M21.522 20.805c0 0.66-0.535 1.195-1.195 1.195h-10.655c-0.66 0-1.195-0.535-1.195-1.195s0.535-1.195 1.195-1.195h10.655c0.66 0 1.195 0.535 1.195 1.195z"></path>
</svg>
