<svg width="30" height="30" fill="none" version="1.1" viewBox="0 0 30 30" xmlns="http://www.w3.org/2000/svg">
 <g transform="translate(2.7013 -9.7437)" clip-rule="evenodd" fill="#fff" fill-rule="evenodd">
  <path d="m18.821 18.939c0 0.66005-0.535 1.1951-1.1951 1.1951h-10.655c-0.66005 0-1.1951-0.53507-1.1951-1.1951 0-0.66005 0.53507-1.1951 1.1951-1.1951h10.655c0.6601 0 1.1951 0.53507 1.1951 1.1951z"/>
  <path d="m18.821 24.744c0 0.66005-0.535 1.1951-1.1951 1.1951h-10.655c-0.66005 0-1.1951-0.53507-1.1951-1.1951s0.53507-1.1951 1.1951-1.1951h10.655c0.6601 0 1.1951 0.53507 1.1951 1.1951z"/>
  <path d="m18.821 30.549c0 0.66-0.535 1.1951-1.1951 1.1951h-10.655c-0.66005 0-1.1951-0.5351-1.1951-1.1951 0-0.6601 0.53507-1.1951 1.1951-1.1951h10.655c0.6601 0 1.1951 0.535 1.1951 1.1951z"/>
 </g>
</svg>
