<svg width="14" height="14" viewBox="0 0 14 14" fill="none" xmlns="http://www.w3.org/2000/svg">
<path fill-rule="evenodd" clip-rule="evenodd" d="M13.0452 1.19512C13.0452 1.85517 12.5102 2.39024 11.8501 2.39024H1.19512C0.535074 2.39024 0 1.85517 0 1.19512C0 0.535074 0.535074 0 1.19512 0H11.8501C12.5102 0 13.0452 0.535074 13.0452 1.19512Z" fill="white"/>
<path fill-rule="evenodd" clip-rule="evenodd" d="M13.0452 6.99981C13.0452 7.65986 12.5102 8.19493 11.8501 8.19493H1.19512C0.535074 8.19493 0 7.65986 0 6.99981C0 6.33976 0.535074 5.80469 1.19512 5.80469H11.8501C12.5102 5.80469 13.0452 6.33976 13.0452 6.99981Z" fill="white"/>
<path fill-rule="evenodd" clip-rule="evenodd" d="M13.0452 12.805C13.0452 13.465 12.5102 14.0001 11.8501 14.0001H1.19512C0.535074 14.0001 0 13.465 0 12.805C0 12.1449 0.535074 11.6099 1.19512 11.6099H11.8501C12.5102 11.6099 13.0452 12.1449 13.0452 12.805Z" fill="white"/>
</svg>
