<svg width="30" height="30" viewBox="0 0 30 30" fill="none" xmlns="http://www.w3.org/2000/svg">
<rect opacity="0.6" width="30" height="30" rx="3" fill="#252527"/>
<g opacity="0.4">
<path fill-rule="evenodd" clip-rule="evenodd" d="M9.7627 11.5704C9.7627 10.7031 10.4658 10 11.3331 10C12.2004 10 12.9035 10.7031 12.9035 11.5704V18.4296C12.9035 19.2969 12.2004 20 11.3331 20C10.4658 20 9.7627 19.2969 9.7627 18.4296V11.5704Z" fill="white"/>
<path fill-rule="evenodd" clip-rule="evenodd" d="M16.0986 11.5704C16.0986 10.7031 16.8017 10 17.669 10C18.5363 10 19.2394 10.7031 19.2394 11.5704V18.4296C19.2394 19.2969 18.5363 20 17.669 20C16.8017 20 16.0986 19.2969 16.0986 18.4296V11.5704Z" fill="white"/>
</g>
</svg>
