<!-- Generated by IcoMoon.io -->
<svg version="1.1" xmlns="http://www.w3.org/2000/svg" width="30" height="30" viewBox="0 0 30 30">
<title>pause</title>
<path fill="#252527" opacity="0.6" d="M3 0h24c1.657 0 3 1.343 3 3v24c0 1.657-1.343 3-3 3h-24c-1.657 0-3-1.343-3-3v-24c0-1.657 1.343-3 3-3z"></path>
<path fill="#fff" opacity="0.4" d="M9.763 11.57c0-0.867 0.703-1.57 1.57-1.57s1.57 0.703 1.57 1.57v6.859c0 0.867-0.703 1.57-1.57 1.57s-1.57-0.703-1.57-1.57v-6.859z"></path>
<path fill="#fff" opacity="0.4" d="M17 11.57c0-0.867 0.703-1.57 1.57-1.57s1.57 0.703 1.57 1.57v6.859c0 0.867-0.703 1.57-1.57 1.57s-1.57-0.703-1.57-1.57z"></path>
</svg>
