<svg width="13" height="13" viewBox="0 0 13 13" fill="none" xmlns="http://www.w3.org/2000/svg">
<path d="M13 4.58806V0.764922L11.621 2.10335C10.4 0.802929 8.62727 0 6.69722 0C2.99444 0 0 2.90626 0 6.5C0 10.0937 2.99369 13 6.69722 13C8.58813 13 10.2818 12.2351 11.5035 11.0121L10.4008 9.90306C9.49444 10.8587 8.15454 11.4702 6.69722 11.4702C3.86086 11.4702 1.57626 9.25286 1.57626 6.50002C1.57626 3.74718 3.86086 1.52986 6.69722 1.52986C8.19444 1.52986 9.57273 2.18008 10.5182 3.17367L9.06086 4.58808L13 4.58806Z" fill="white"/>
</svg>
