<svg width="17" height="17" viewBox="0 0 17 17" fill="none" xmlns="http://www.w3.org/2000/svg">
<g clip-path="url(#clip0)">
<path d="M15.9143 14.2896L11.9474 10.3048C12.5718 9.35782 12.9349 8.22444 12.9349 7.0038C12.9349 3.69758 10.2674 1.01807 6.97672 1.01807C3.68599 1.01807 1.01855 3.69818 1.01855 7.0044C1.01855 10.3094 3.68599 12.9901 6.97672 12.9901C8.19116 12.9901 9.32059 12.6242 10.2628 11.9976L14.2291 15.9824L15.9143 14.2896ZM2.70669 7.00499C2.70669 4.63584 4.61885 2.71622 6.97673 2.71622C9.33521 2.71622 11.2474 4.63584 11.2474 7.00499C11.2474 9.37415 9.33521 11.295 6.97673 11.295C4.61885 11.295 2.70669 9.37415 2.70669 7.00499Z" fill="white"/>
</g>
<defs>
<clipPath id="clip0">
<rect x="1.01758" y="1.01807" width="14.8969" height="14.9643" fill="white"/>
</clipPath>
</defs>
</svg>
