<svg width="30" height="30" fill="none" version="1.1" viewBox="0 0 30 30" xmlns="http://www.w3.org/2000/svg">
 <defs>
  <clipPath id="clip0">
   <rect x="1.0176" y="1.0181" width="14.897" height="14.964" fill="#fff"/>
  </clipPath>
 </defs>
 <g transform="translate(6.5336 6.4998)" clip-path="url(#clip0)">
  <path d="m15.914 14.29-3.9669-3.9848c0.6244-0.94698 0.9875-2.0804 0.9875-3.301 0-3.3062-2.6675-5.9857-5.9582-5.9857-3.2907 0-5.9582 2.6801-5.9582 5.9863 0 3.305 2.6674 5.9857 5.9582 5.9857 1.2144 0 2.3439-0.3659 3.2861-0.9925l3.9663 3.9848zm-13.208-7.2846c0-2.3692 1.9122-4.2888 4.27-4.2888 2.3585 0 4.2707 1.9196 4.2707 4.2888 0 2.3692-1.9122 4.29-4.2707 4.29-2.3579 0-4.27-1.9208-4.27-4.29z" fill="#fff"/>
 </g>
</svg>
