<!-- Generated by IcoMoon.io -->
<svg version="1.1" xmlns="http://www.w3.org/2000/svg" width="30" height="30" viewBox="0 0 30 30">
<title>story-hover</title>
<path fill="#95959d" opacity="0.2" d="M0 3v24c0 1.657 1.343 3 3 3h24c1.657 0 3-1.343 3-3v-24c0-1.657-1.343-3-3-3h-24c-1.657 0-3 1.343-3 3z"></path>
<path fill="#fff" d="M13.34 3.71l-2.289 2.764 2.106 2.809h11.178v-5.572h-0.75zM14.045 5.21h8.789v2.572h-8.928l-0.945-1.262z"></path>
<path fill="#fff" d="M13.34 10.91l-2.289 2.764 2.106 2.809h11.178v-5.572h-0.75zM14.045 12.41h8.789v2.572h-8.928l-0.945-1.262z"></path>
<path fill="#fff" d="M6.51 3.64c-0.345 0-0.625 0.28-0.625 0.625v0 13.654h2.297c0.345 0 0.625-0.28 0.625-0.625v0c0-0.345-0.28-0.625-0.625-0.625v0h-1.047v-12.404c0-0.345-0.28-0.625-0.625-0.625v0z"></path>
<path fill="#fff" d="M6.57 13.13c-0.345 0-0.625 0.28-0.625 0.625v0c0 0.345 0.28 0.625 0.625 0.625v0h2.99c0.345 0 0.625-0.28 0.625-0.625v0c0-0.345-0.28-0.625-0.625-0.625v0z"></path>
<path fill="#fff" d="M6.57 9.52c-0.345 0-0.625 0.28-0.625 0.625v0c0 0.345 0.28 0.625 0.625 0.625v0h1.328c0.345 0 0.625-0.28 0.625-0.625v0c0-0.345-0.28-0.625-0.625-0.625v0z"></path>
<path fill="#fff" d="M6.57 5.91c-0.345 0-0.625 0.28-0.625 0.625v0c0 0.345 0.28 0.625 0.625 0.625v0h2.99c0.345 0 0.625-0.28 0.625-0.625v0c0-0.345-0.28-0.625-0.625-0.625v0z"></path>
<path fill="#fff" d="M5.089 26.27h1.12v-6.208h-1.12z"></path>
<path fill="#fff" d="M7.089 26.27h1.13v-4.365l3.28 4.365h1.12v-6.208h-1.12v4.365l-3.28-4.365h-1.13z"></path>
<path fill="#fff" d="M18.149 21.090v-1.030h-4.672v6.208h1.13v-2.575h3.208v-1.030h-3.208v-1.572z"></path>
<path fill="#fff" d="M21.669 26.38c1.762 0 3.253-1.473 3.253-3.217s-1.491-3.208-3.253-3.208c-1.771 0-3.262 1.464-3.262 3.208s1.491 3.217 3.262 3.217zM21.669 25.35c-1.148 0-2.115-0.994-2.115-2.187 0-1.184 0.967-2.178 2.115-2.178 1.139 0 2.096 0.994 2.096 2.178 0 1.193-0.958 2.187-2.096 2.187z"></path>
</svg>
