<!-- Generated by IcoMoon.io -->
<svg version="1.1" xmlns="http://www.w3.org/2000/svg" width="30" height="30" viewBox="0 0 30 30">
<title>telescope</title>
<path fill="#252527" opacity="0.6" d="M3 0h24c1.657 0 3 1.343 3 3v24c0 1.657-1.343 3-3 3h-24c-1.657 0-3-1.343-3-3v-24c0-1.657 1.343-3 3-3z"></path>
<path fill="#fff" opacity="0.4" d="M22.044 8.343c-0.037-0.144-0.136-0.265-0.27-0.33s-0.29-0.069-0.427-0.010l-2.924 1.292c-0.215 0.098-0.333 0.329-0.289 0.561l-7.616 2.074c-0.131 0.036-0.242 0.122-0.309 0.24s-0.084 0.258-0.047 0.389l0.034 0.102-1.003 0.272c-0.199 0.053-0.347 0.221-0.374 0.425l-1.037 0.272c-0.131 0.036-0.242 0.122-0.309 0.24s-0.084 0.258-0.048 0.389l0.544 1.989c0.061 0.222 0.263 0.375 0.493 0.375h0.136l1.020-0.272 0.153 0.119c0.078 0.045 0.165 0.068 0.255 0.068h0.136l1.003-0.272 0.034 0.102c0.061 0.221 0.263 0.375 0.493 0.374h0.136l3.23-0.884-0.001 2.38-2.737 4.233 0.85 0.544 2.38-3.689 2.38 3.689 0.85-0.544-2.72-4.233v-2.686l3.366-0.918c0.071 0.203 0.262 0.338 0.475 0.34h0.068l3.18-0.374c0.147-0.019 0.279-0.101 0.36-0.225s0.106-0.278 0.065-0.421l-1.53-5.61z"></path>
</svg>
