<?xml version="1.0" encoding="UTF-8" standalone="no"?>
<!DOCTYPE svg PUBLIC "-//W3C//DTD SVG 20010904//EN" "http://www.w3.org/TR/2001/REC-SVG-20010904/DTD/svg10.dtd">
<svg version="1.0" xmlns="http://www.w3.org/2000/svg" width="300.000000pt" height="300.000000pt" viewBox="0 0 300.000000 300.000000" preserveAspectRatio="xMidYMid meet">
<metadata>
Created by potrace 1.11, written by Peter Selinger 2001-2013
</metadata>
<g transform="translate(0.000000,300.000000) scale(0.100000,-0.100000)" fill="#000000" stroke="none">
<path d="M1223 2740 c-459 -65 -846 -383 -1001 -822 -42 -117 -62 -221 -69 -352 -5 -97 6 -249 22 -311 5 -17 -7 -27 -70 -60 -83 -43 -109 -65 -80 -65 10 0 41 13 69 29 92 52 89 53 121 -45 53 -164 151 -328 267 -450 l57 -60 -94 -85 c-54 -48 -94 -92 -95 -103 0 -15 11 -9 53 28 28 25 76 67 104 92 l53 46 47 -40 c412 -343 1002 -374 1460 -76 175 113 361 328 448 517 135 295 151 650 41 941 l-26 69 93 91 c112 110 183 193 254 303 54 82 118 211 110 220 -3 2 -21 -18 -40 -44 -43 -58 -115 -128 -219 -210 -75 -60 -269 -193 -281 -193 -3 0 -27 30 -53 68 -170 239 -453 427 -744 493 -97 23 -330 33 -427 19z m182 -100 c3 -5 1 -10 -4 -10 -6 0 -11 5 -11 10 0 6 2 10 4 10 3 0 8 -4 11 -10z m249 -144 c-6 -15 -8 -15 -19 1 -9 12 -9 20 -1 29 14 15 29 -7 20 -30z m-324 4 c0 -5 -4 -10 -10 -10 -5 0 -10 5 -10 10 0 6 5 10 10 10 6 0 10 -4 10 -10z m144 -21 c-3 -5 -10 -7 -15 -3 -5 3 -7 10 -3 15 3 5 10 7 15 3 5 -3 7 -10 3 -15z m-304 -79 c0 -5 -4 -10 -10 -10 -5 0 -10 5 -10 10 0 6 5 10 10 10 6 0 10 -4 10 -10z m195 0 c3 -5 1 -10 -4 -10 -6 0 -11 5 -11 10 0 6 2 10 4 10 3 0 8 -4 11 -10z m-165 -20 c0 -5 -4 -10 -10 -10 -5 0 -10 5 -10 10 0 6 5 10 10 10 6 0 10 -4 10 -10z m30 -20 c0 -5 -4 -10 -10 -10 -5 0 -10 5 -10 10 0 6 5 10 10 10 6 0 10 -4 10 -10z m245 -20 c3 -5 1 -10 -4 -10 -6 0 -11 5 -11 10 0 6 2 10 4 10 3 0 8 -4 11 -10z m-375 -46 c186 -67 428 -261 599 -479 53 -68 68 -81 99 -86 20 -4 45 -3 55 2 15 9 17 4 17 -47 l0 -56 -27 18 -28 17 20 -29 c46 -71 111 -184 141 -249 l32 -69 20 69 c12 39 35 119 51 179 17 60 32 110 33 111 2 2 24 16 49 31 37 24 54 28 96 26 l51 -4 27 -76 c87 -242 129 -349 143 -364 14 -17 8 -18 -116 -18 -73 0 -132 3 -132 7 0 3 7 14 16 24 12 14 14 24 7 46 -9 27 -12 28 -86 31 -76 3 -76 3 -83 -24 -4 -15 -2 -40 4 -56 10 -28 10 -28 -29 -28 -38 0 -38 0 -28 -27 21 -56 39 -167 39 -242 0 -92 -26 -153 -80 -189 -32 -22 -43 -23 -120 -19 -55 2 -106 12 -143 27 -76 29 -68 36 9 9 85 -30 188 -31 235 -1 57 35 74 80 74 192 -1 118 -36 250 -67 250 -15 0 -16 3 -7 19 10 15 6 30 -19 82 -29 61 -30 63 -31 30 -1 -47 -63 -105 -133 -126 -61 -18 -90 -19 -158 -4 -42 9 -55 8 -75 -5 -30 -20 -35 -20 -35 -1 0 8 18 28 40 44 36 26 46 29 98 25 88 -7 134 25 92 64 l-22 20 69 45 c64 41 69 43 87 28 18 -16 18 -15 3 14 -8 17 -37 62 -64 100 -38 55 -54 71 -77 73 -43 5 -88 -17 -84 -42 3 -21 20 -32 106 -67 28 -12 52 -25 52 -29 0 -4 -34 -28 -77 -54 l-76 -48 -42 16 c-67 26 -98 66 -103 133 -3 49 0 63 19 87 28 36 92 65 142 66 20 0 37 3 37 6 0 4 -39 51 -86 105 -207 238 -442 408 -607 438 -102 19 -171 -9 -208 -85 -19 -40 -21 -57 -17 -147 6 -119 47 -255 122 -406 51 -101 51 -101 33 -101 -17 0 -77 113 -121 225 -94 245 -85 449 23 522 49 33 145 32 241 -3z m560 -64 c0 -5 -4 -10 -10 -10 -5 0 -10 5 -10 10 0 6 5 10 10 10 6 0 10 -4 10 -10z m-581 -106 c-9 -11 -15 -11 -25 -3 -10 8 -11 14 -1 24 17 19 42 -2 26 -21z m-89 -24 c0 -5 -2 -10 -4 -10 -3 0 -8 5 -11 10 -3 6 -1 10 4 10 6 0 11 -4 11 -10z m-422 -378 c7 -9 43 -70 80 -134 37 -65 69 -118 72 -118 3 0 4 51 2 112 -2 77 -8 120 -18 136 l-14 22 66 0 c64 0 66 -1 51 -18 -15 -16 -17 -45 -17 -204 0 -172 1 -187 21 -212 l20 -26 -98 0 -98 0 -88 148 -87 147 0 -118 c0 -104 3 -122 21 -148 l20 -29 -78 0 -78 0 25 20 c25 19 25 20 28 201 3 171 2 184 -17 210 -12 16 -21 31 -21 35 0 4 44 4 98 0 74 -5 100 -11 110 -24z m735 -92 c22 -58 57 -152 79 -210 22 -58 42 -113 45 -122 5 -17 -5 -18 -116 -18 l-121 0 15 23 c12 19 13 30 4 55 -10 31 -13 32 -65 32 -30 0 -54 -3 -54 -7 1 -5 36 -53 80 -108 44 -55 80 -103 80 -106 0 -4 -6 -9 -14 -12 -9 -4 -43 33 -99 108 -47 62 -88 111 -91 108 -10 -10 -7 -53 4 -74 10 -18 7 -19 -62 -19 l-72 0 28 29 c22 23 38 66 78 206 l50 177 -23 24 -23 25 119 -3 120 -3 38 -105z m797 100 c0 -5 -4 -10 -10 -10 -5 0 -10 5 -10 10 0 6 5 10 10 10 6 0 10 -4 10 -10z m-553 -357 c2 -6 -3 -13 -12 -16 -10 -5 -15 0 -15 14 0 21 21 22 27 2z m643 -203 c0 -5 -4 -10 -10 -10 -5 0 -10 5 -10 10 0 6 5 10 10 10 6 0 10 -4 10 -10z m157 -65 c-17 -19 -42 2 -26 21 9 11 15 11 25 3 10 -8 11 -14 1 -24z m-982 -36 c76 -61 86 -77 61 -98 -22 -19 -58 2 -114 65 -61 68 -64 81 -24 93 1 1 36 -26 77 -60z m845 35 c0 -8 -4 -12 -10 -9 -5 3 -10 10 -10 16 0 5 5 9 10 9 6 0 10 -7 10 -16z m-180 -4 c0 -5 -4 -10 -10 -10 -5 0 -10 5 -10 10 0 6 5 10 10 10 6 0 10 -4 10 -10z m-90 -64 c0 -3 -4 -8 -10 -11 -5 -3 -10 -1 -10 4 0 6 5 11 10 11 6 0 10 -2 10 -4z m450 -6 c0 -5 -4 -10 -9 -10 -6 0 -13 5 -16 10 -3 6 1 10 9 10 9 0 16 -4 16 -10z m-1430 -20 c0 -5 -4 -10 -10 -10 -5 0 -10 5 -10 10 0 6 5 10 10 10 6 0 10 -4 10 -10z m1070 0 c0 -5 -4 -10 -10 -10 -5 0 -10 5 -10 10 0 6 5 10 10 10 6 0 10 -4 10 -10z m290 0 c0 -5 -5 -10 -11 -10 -5 0 -7 5 -4 10 3 6 8 10 11 10 2 0 4 -4 4 -10z m-1680 -60 c0 -5 -7 -10 -16 -10 -8 0 -12 5 -9 10 3 6 10 10 16 10 5 0 9 -4 9 -10z m1570 -50 c0 -5 -4 -10 -10 -10 -5 0 -10 5 -10 10 0 6 5 10 10 10 6 0 10 -4 10 -10z m-1380 -10 c0 -5 -4 -10 -10 -10 -5 0 -10 5 -10 10 0 6 5 10 10 10 6 0 10 -4 10 -10z m1110 6 c0 -3 -4 -8 -10 -11 -5 -3 -10 -1 -10 4 0 6 5 11 10 11 6 0 10 -2 10 -4z m-1320 -16 c0 -5 -4 -10 -10 -10 -5 0 -10 5 -10 10 0 6 5 10 10 10 6 0 10 -4 10 -10z m1619 -46 c-9 -11 -15 -12 -25 -3 -11 9 -12 15 -3 25 9 11 15 12 25 3 11 -9 12 -15 3 -25z m-1569 6 c0 -5 -4 -10 -10 -10 -5 0 -10 5 -10 10 0 6 5 10 10 10 6 0 10 -4 10 -10z m366 -17 c-10 -10 -19 5 -10 18 6 11 8 11 12 0 2 -7 1 -15 -2 -18z m1264 17 c0 -5 -2 -10 -4 -10 -3 0 -8 5 -11 10 -3 6 -1 10 4 10 6 0 11 -4 11 -10z m-725 -10 c3 -5 1 -10 -4 -10 -6 0 -11 5 -11 10 0 6 2 10 4 10 3 0 8 -4 11 -10z m-655 -90 c0 -5 -4 -10 -10 -10 -5 0 -10 5 -10 10 0 6 5 10 10 10 6 0 10 -4 10 -10z m1060 -120 c0 -5 -4 -10 -10 -10 -5 0 -10 5 -10 10 0 6 5 10 10 10 6 0 10 -4 10 -10z m-1024 -36 c-8 -8 -15 -8 -28 -1 -15 10 -15 12 0 23 20 15 45 -4 28 -22z"/>
<path d="M2136 1538 c-10 -35 -21 -71 -23 -80 -5 -16 2 -18 51 -18 31 0 56 4 56 8 0 12 -50 136 -59 145 -4 4 -16 -21 -25 -55z"/>
<path d="M1095 1548 c-9 -35 -20 -71 -22 -80 -5 -16 2 -18 51 -18 31 0 56 2 56 4 0 5 -60 149 -64 153 -1 2 -11 -25 -21 -59z"/>
</g>
</svg>